<svg width="19" height="14" viewBox="0 0 19 14" fill="none" xmlns="http://www.w3.org/2000/svg">
<path d="M17.1094 0.453125H2.48438C1.53516 0.453125 0.796875 1.22656 0.796875 2.14062V12.2656C0.796875 13.2148 1.53516 13.9531 2.48438 13.9531H17.1094C18.0234 13.9531 18.7969 13.2148 18.7969 12.2656V2.14062C18.7969 1.22656 18.0234 0.453125 17.1094 0.453125ZM17.1094 2.14062V3.58203C16.3008 4.25 15.0352 5.23438 12.3633 7.34375C11.7656 7.80078 10.6055 8.92578 9.79688 8.89062C8.95312 8.92578 7.79297 7.80078 7.19531 7.34375C4.52344 5.23438 3.25781 4.25 2.48438 3.58203V2.14062H17.1094ZM2.48438 12.2656V5.76172C3.25781 6.39453 4.41797 7.30859 6.14062 8.67969C6.91406 9.27734 8.28516 10.6133 9.79688 10.5781C11.2734 10.6133 12.6094 9.27734 13.418 8.67969C15.1406 7.30859 16.3008 6.39453 17.1094 5.76172V12.2656H2.48438Z" fill="#808080"/>
</svg>
